<svg width="51" height="46" viewBox="0 0 51 46" fill="none" xmlns="http://www.w3.org/2000/svg">
<path d="M26.7048 7.52084C29.3715 5.93751 32.7048 5.93751 35.3715 7.52084C38.0382 9.10418 39.6048 12.0208 39.4882 15.1042V15.4875C41.5882 15.4875 43.8048 16.9542 44.5715 20.5208L45.8548 30.5042C46.8065 37.0208 43.0215 39.6708 37.9382 39.6708H24.1215C19.0232 39.6708 15.1215 37.8375 16.1715 30.5042L17.4715 20.5208C17.6715 19.0375 18.3882 17.6542 19.5048 16.6375C20.3565 15.8892 21.4548 15.4875 22.5882 15.4875V15.1042C22.4548 12.0208 24.0398 9.10418 26.7048 7.52084ZM35.8215 20.8542C35.0065 20.8542 34.3382 21.5042 34.3382 22.3208C34.3382 23.1208 35.0065 23.7875 35.8215 23.7875C36.2048 23.7875 36.5882 23.6375 36.8548 23.3542C37.1382 23.0875 37.2882 22.7042 37.2882 22.3208C37.2882 21.5042 36.6215 20.8542 35.8215 20.8542ZM26.1548 20.8542C25.3382 20.8542 24.6715 21.5042 24.6715 22.3208C24.6715 23.1208 25.3382 23.7875 26.1548 23.7875C26.9715 23.7875 27.6215 23.1208 27.6215 22.3208C27.6215 21.5042 26.9715 20.8542 26.1548 20.8542ZM31.0048 9.23751C27.7548 9.23751 25.1215 11.8708 25.1215 15.1042V15.4725H36.9048V15.1042C36.9048 11.8708 34.2715 9.23751 31.0048 9.23751Z" fill="white"/>
<line x1="0.5" y1="0.5" x2="0.500002" y2="45.5" stroke="white" stroke-linecap="round"/>
</svg>
