<svg width="62" height="62" viewBox="0 0 62 62" fill="none" xmlns="http://www.w3.org/2000/svg">
<circle cx="31" cy="31" r="31" fill="url(#paint0_linear_3_9)"/>
<g clip-path="url(#clip0_3_9)">
<path d="M43.4985 21.7565C43.1703 21.3627 42.7595 21.0459 42.2951 20.8288C41.8308 20.6116 41.3243 20.4994 40.8117 20.5H21.949L21.9 20.0905C21.7997 19.2393 21.3906 18.4545 20.7502 17.8849C20.1099 17.3153 19.2827 17.0004 18.4257 17H18.1667C17.8572 17 17.5605 17.1229 17.3417 17.3417C17.1229 17.5605 17 17.8572 17 18.1667C17 18.4761 17.1229 18.7728 17.3417 18.9916C17.5605 19.2104 17.8572 19.3333 18.1667 19.3333H18.4257C18.7114 19.3334 18.9872 19.4383 19.2008 19.6282C19.4143 19.8181 19.5507 20.0797 19.5842 20.3635L21.1895 34.0135C21.3562 35.4331 22.0382 36.7421 23.1062 37.692C24.1742 38.6419 25.5538 39.1667 26.9832 39.1667H39.1667C39.4761 39.1667 39.7728 39.0438 39.9916 38.825C40.2104 38.6062 40.3333 38.3094 40.3333 38C40.3333 37.6906 40.2104 37.3938 39.9916 37.175C39.7728 36.9562 39.4761 36.8333 39.1667 36.8333H26.9832C26.2611 36.8313 25.5573 36.606 24.9683 36.1882C24.3792 35.7705 23.9339 35.1808 23.6932 34.5H37.5998C38.9675 34.5001 40.2917 34.0196 41.3411 33.1425C42.3905 32.2654 43.0984 31.0475 43.341 29.7015L44.2568 24.6218C44.3483 24.1178 44.3277 23.5999 44.1967 23.1047C44.0656 22.6096 43.8273 22.1493 43.4985 21.7565V21.7565Z" fill="black"/>
<path d="M25.1667 45C26.4554 45 27.5 43.9553 27.5 42.6667C27.5 41.378 26.4554 40.3333 25.1667 40.3333C23.878 40.3333 22.8334 41.378 22.8334 42.6667C22.8334 43.9553 23.878 45 25.1667 45Z" fill="black"/>
<path d="M36.8333 45C38.122 45 39.1667 43.9553 39.1667 42.6667C39.1667 41.378 38.122 40.3333 36.8333 40.3333C35.5447 40.3333 34.5 41.378 34.5 42.6667C34.5 43.9553 35.5447 45 36.8333 45Z" fill="black"/>
</g>
<defs>
<linearGradient id="paint0_linear_3_9" x1="2.5" y1="27.5" x2="62" y2="39" gradientUnits="userSpaceOnUse">
<stop stop-color="#FFD154"/>
<stop offset="0.994792" stop-color="#FFC936"/>
</linearGradient>
<clipPath id="clip0_3_9">
<rect width="28" height="28" fill="white" transform="translate(17 17)"/>
</clipPath>
</defs>
</svg>
